<?xml version="1.0" encoding="utf-8"?>
<!-- Generator: Adobe Illustrator 22.1.0, SVG Export Plug-In . SVG Version: 6.00 Build 0)  -->
<svg version="1.1" id="Lager_1" xmlns="http://www.w3.org/2000/svg" xmlns:xlink="http://www.w3.org/1999/xlink" x="0px" y="0px"
	 viewBox="0 0 189 119" style="enable-background:new 0 0 189 119;" xml:space="preserve">
<style type="text/css">
	.st0{fill:#D51317;}
</style>
<g>
	<path class="st0" d="M155.7,22.8h-21.4L124,53.1L108.3,5.7H79L62.9,54.4L50.1,16.7H26.1L6.3,74.9l21.1,0l2.5-6.8h16.4l2.5,6.8
		l31.7,0l3.1-8.3h20.1l3.1,8.2l28.7,0l2.2-6.1h14.7l2.2,6.1h18.9L155.7,22.8z M32.7,53.8L38.1,38l5.4,15.7H32.7z M87.3,50.1l6.4-20
		l6.4,20H87.3z M140.1,56l4.9-14.2l5,14.2H140.1z"/>
	<g>
		<path d="M163.2,22.7v-6.1h2.7c0.5,0,1,0,1.2,0.2c0.3,0.1,0.5,0.3,0.7,0.6c0.2,0.3,0.3,0.6,0.3,0.9c0,0.4-0.1,0.8-0.4,1.1
			c-0.3,0.3-0.7,0.5-1.3,0.6c0.2,0.1,0.4,0.2,0.5,0.3c0.2,0.2,0.5,0.5,0.7,0.8l1.1,1.7h-1l-0.8-1.3c-0.2-0.4-0.4-0.7-0.6-0.8
			c-0.2-0.2-0.3-0.3-0.4-0.4c-0.1-0.1-0.2-0.1-0.4-0.2c-0.1,0-0.2,0-0.4,0H164v2.7H163.2z M164,19.3h1.7c0.4,0,0.7,0,0.9-0.1
			c0.2-0.1,0.4-0.2,0.5-0.4c0.1-0.2,0.2-0.3,0.2-0.6c0-0.3-0.1-0.5-0.3-0.7c-0.2-0.2-0.5-0.3-1-0.3H164V19.3z"/>
		<path d="M165.6,26.1c-3.5,0-6.4-2.9-6.4-6.4c0-3.5,2.9-6.4,6.4-6.4c3.5,0,6.4,2.9,6.4,6.4C172,23.3,169.1,26.1,165.6,26.1
			 M165.6,14.2c-3,0-5.5,2.5-5.5,5.5c0,3,2.5,5.5,5.5,5.5c3,0,5.5-2.5,5.5-5.5C171.1,16.7,168.7,14.2,165.6,14.2"/>
	</g>
</g>
<path d="M6.4,82.7h1.9V86h3.5v-3.3h1.9v8.6h-1.9v-3.7H8.3v3.7H6.4V82.7z"/>
<path d="M19.2,82.5c2.7,0,4.2,2,4.2,4.5c0,2.5-1.6,4.4-4.2,4.4c-2.7,0-4.2-2-4.2-4.4C14.9,84.5,16.5,82.5,19.2,82.5z M19.2,89.9
	c1.7,0,2.3-1.4,2.3-2.9c0-1.5-0.6-2.9-2.3-2.9s-2.3,1.4-2.3,2.9C16.8,88.4,17.5,89.9,19.2,89.9z M17.1,80.3h1.6v1.4h-1.6V80.3z
	 M19.6,80.3h1.6v1.4h-1.6V80.3z"/>
<path d="M30.8,90.3c-0.7,0.9-1.5,1.2-2.4,1.2c-2.7,0-4.2-2-4.2-4.4c0-2.5,1.6-4.5,4.2-4.5c1.8,0,3.4,1.1,3.6,3h-1.8
	c-0.2-0.9-0.9-1.4-1.8-1.4c-1.7,0-2.3,1.4-2.3,2.9c0,1.4,0.6,2.9,2.3,2.9c1.2,0,1.9-0.7,2-1.8h-1.9v-1.4h3.6v4.6H31L30.8,90.3z"/>
<path d="M35,88.4c0,1.1,0.9,1.6,1.9,1.6c0.7,0,1.7-0.2,1.7-1.1c0-0.9-1.3-1.1-2.5-1.4c-1.3-0.3-2.6-0.8-2.6-2.4
	c0-1.8,1.7-2.6,3.2-2.6c1.8,0,3.4,0.8,3.4,2.8h-1.8c-0.1-1-0.8-1.3-1.7-1.3c-0.6,0-1.3,0.3-1.3,1c0,0.7,0.4,0.7,2.6,1.3
	c0.6,0.2,2.5,0.6,2.5,2.5c0,1.6-1.2,2.7-3.6,2.7c-1.9,0-3.7-0.9-3.6-3H35z"/>
<path d="M43.4,84.3h-2.6v-1.6h7v1.6h-2.6v7h-1.9V84.3z"/>
<path d="M50.3,82.7h1.9l3.2,8.6h-2l-0.6-1.9h-3.2L49,91.3h-1.9L50.3,82.7z M50.1,87.9h2.2l-1.1-3.1h0L50.1,87.9z"/>
<path d="M59.5,82.7h1.9v3.6l3.3-3.6h2.4l-3.3,3.4l3.7,5.2h-2.4l-2.6-3.9l-1.1,1.1v2.8h-1.9V82.7z"/>
<path d="M68.2,82.7h4.6c1.5,0,2.5,1.1,2.5,2.4c0,1-0.4,1.8-1.4,2.1v0c0.9,0.2,1.2,1.1,1.2,2c0,0.5,0,1.5,0.4,2h-1.9
	c-0.2-0.5-0.2-1.4-0.3-2.1c-0.1-0.9-0.5-1.3-1.4-1.3h-1.9v3.3h-1.9V82.7z M70.1,86.6h2.1c0.8,0,1.3-0.4,1.3-1.2
	c0-0.8-0.5-1.2-1.3-1.2h-2.1V86.6z"/>
<path d="M76.9,82.7h6.4v1.6h-4.5v1.8h4.1v1.5h-4.1v2.1h4.6v1.6h-6.5V82.7z"/>
<path d="M84.6,82.7h3.7c2.2,0,3.9,1.4,3.9,4.2c0,2.5-1.3,4.3-3.9,4.3h-3.7V82.7z M86.5,89.7h1.7c1.1,0,2.1-0.7,2.1-2.6
	c0-1.7-0.6-2.8-2.5-2.8h-1.3V89.7z"/>
<path d="M93.5,82.7h1.9v8.6h-1.9V82.7z"/>
<path d="M99,84.3h-2.6v-1.6h7v1.6h-2.6v7H99V84.3z"/>
<path d="M108.4,91.3h-2.1l-2.8-8.6h1.9l1.9,6h0l1.9-6h1.9L108.4,91.3z"/>
<path d="M113.8,82.7h1.9l3.2,8.6h-2l-0.6-1.9h-3.2l-0.7,1.9h-1.9L113.8,82.7z M112.7,80.3h1.6v1.4h-1.6V80.3z M113.6,87.9h2.2
	l-1.1-3.1h0L113.6,87.9z M115.1,80.3h1.6v1.4h-1.6V80.3z"/>
<path d="M119.6,82.7h4.6c1.5,0,2.5,1.1,2.5,2.4c0,1-0.4,1.8-1.4,2.1v0c0.9,0.2,1.2,1.1,1.2,2c0,0.5,0,1.5,0.4,2h-1.9
	c-0.2-0.5-0.2-1.4-0.3-2.1c-0.1-0.9-0.5-1.3-1.4-1.3h-1.9v3.3h-1.9V82.7z M121.5,86.6h2.1c0.8,0,1.3-0.4,1.3-1.2
	c0-0.8-0.5-1.2-1.3-1.2h-2.1V86.6z"/>
<path d="M128.3,82.7h3.7c2.2,0,3.9,1.4,3.9,4.2c0,2.5-1.3,4.3-3.9,4.3h-3.7V82.7z M130.2,89.7h1.7c1.1,0,2.1-0.7,2.1-2.6
	c0-1.7-0.6-2.8-2.5-2.8h-1.3V89.7z"/>
<path d="M137.2,82.7h1.9v8.6h-1.9V82.7z"/>
<path d="M146.9,90.3c-0.7,0.9-1.5,1.2-2.4,1.2c-2.7,0-4.2-2-4.2-4.4c0-2.5,1.6-4.5,4.2-4.5c1.8,0,3.4,1.1,3.6,3h-1.8
	c-0.2-0.9-0.9-1.4-1.8-1.4c-1.7,0-2.3,1.4-2.3,2.9c0,1.4,0.6,2.9,2.3,2.9c1.2,0,1.9-0.7,2-1.8h-1.9v-1.4h3.6v4.6h-1.2L146.9,90.3z"
	/>
<path d="M149.8,82.7h1.9V86h3.5v-3.3h1.9v8.6h-1.9v-3.7h-3.5v3.7h-1.9V82.7z"/>
<path d="M158.7,82.7h6.4v1.6h-4.5v1.8h4.1v1.5h-4.1v2.1h4.6v1.6h-6.5V82.7z"/>
<path d="M168.4,84.3h-2.6v-1.6h7v1.6h-2.6v7h-1.9V84.3z"/>
<path d="M50.6,96.9c2.4,0,4.5,1.9,4.5,4.5c0,2.6-2.1,4.5-4.5,4.5c-2.5,0-4.5-1.9-4.5-4.5C46.1,98.8,48.2,96.9,50.6,96.9z
	 M50.6,105.2c2.1,0,3.7-1.7,3.7-3.9c0-2.1-1.6-3.8-3.7-3.8c-2.1,0-3.7,1.7-3.7,3.8C46.9,103.5,48.5,105.2,50.6,105.2z M53,102.2
	c-0.3,1.2-1.1,1.9-2.2,1.9c-1.6,0-2.7-1.2-2.7-2.7c0-1.6,1-2.7,2.6-2.7c1.1,0,2.1,0.6,2.3,1.8h-0.8c-0.1-0.7-0.7-1.2-1.5-1.2
	c-1.2,0-1.8,0.9-1.8,2.1c0,1.1,0.7,2.1,1.8,2.1c0.8,0,1.4-0.5,1.5-1.2H53z"/>
<path d="M59.7,97.1h3.1c0.8,0,1.8,0,2.3,0.3c0.6,0.3,1,0.9,1,1.8c0,0.9-0.5,1.6-1.3,1.9v0c1.1,0.2,1.6,1,1.6,2.1
	c0,1.3-0.9,2.5-2.6,2.5h-4.1V97.1z M60.8,100.8h2.3c1.3,0,1.8-0.5,1.8-1.4c0-1.2-0.8-1.4-1.8-1.4h-2.3V100.8z M60.8,104.7h2.9
	c1,0,1.6-0.6,1.6-1.5c0-1.1-0.9-1.4-1.9-1.4h-2.6V104.7z"/>
<path d="M68.8,98.3h-1v-1.2h1V98.3z M67.8,99.5h1v6.2h-1V99.5z"/>
<path d="M71,103.7c0,0.9,0.8,1.2,1.7,1.2c0.6,0,1.5-0.1,1.5-0.9c0-0.8-1-0.9-2-1.2c-1-0.2-2-0.6-2-1.8c0-1.2,1.2-1.8,2.3-1.8
	c1.4,0,2.5,0.4,2.5,1.9h-1c-0.1-0.8-0.8-1-1.4-1c-0.6,0-1.3,0.2-1.3,0.8c0,0.7,1.1,0.9,2,1.1c1,0.2,2,0.6,2,1.8c0,1.5-1.4,2-2.6,2
	c-1.4,0-2.6-0.6-2.6-2.1H71z"/>
<path d="M76.4,99.5h1v1h0c0.4-0.8,1.1-1.1,2-1.1c1.6,0,2.1,0.9,2.1,2.3v4.1h-1v-4.2c0-0.8-0.5-1.2-1.3-1.2c-1.2,0-1.8,0.8-1.8,1.9
	v3.5h-1V99.5z"/>
<path d="M85.8,99.3c2,0,3,1.4,3,3.3c0,1.8-1,3.2-3,3.2c-2,0-3-1.4-3-3.2C82.7,100.7,83.8,99.3,85.8,99.3z M85.8,104.9
	c1.1,0,1.9-0.8,1.9-2.3c0-1.5-0.9-2.4-1.9-2.4c-1.1,0-1.9,0.8-1.9,2.4C83.8,104.1,84.7,104.9,85.8,104.9z"/>
<path d="M95.5,105.7h-1v-0.8h0c-0.3,0.7-1.1,1-2,1c-1.9,0-2.9-1.5-2.9-3.3s0.9-3.2,2.8-3.2c0.6,0,1.5,0.2,2,1h0v-3.2h1V105.7z
	 M92.6,104.9c1.4,0,1.9-1.2,1.9-2.3c0-1.2-0.6-2.4-2-2.4c-1.4,0-1.9,1.2-1.9,2.4C90.7,103.8,91.3,104.9,92.6,104.9z"/>
<path d="M102.4,103.7c-0.3,1.4-1.3,2.1-2.7,2.1c-2,0-2.9-1.4-3-3.3c0-1.9,1.2-3.2,2.9-3.2c2.2,0,2.9,2.1,2.8,3.6h-4.6
	c0,1.1,0.6,2,1.9,2c0.8,0,1.4-0.4,1.6-1.2H102.4z M101.4,102c0-1-0.8-1.8-1.8-1.8c-1.1,0-1.7,0.8-1.8,1.8H101.4z"/>
<g>
	<path d="M107.9,99.2c0.1-0.4,0.3-0.7,0.5-0.9c0.2-0.3,0.5-0.5,0.9-0.6c0.3-0.2,0.7-0.2,1.2-0.2c0.4,0,0.7,0.1,1,0.2
		c0.3,0.1,0.6,0.3,0.8,0.5c0.2,0.2,0.4,0.5,0.6,0.8c0.1,0.3,0.2,0.7,0.2,1.1c0,0.4-0.1,0.7-0.2,1c-0.1,0.3-0.3,0.5-0.5,0.8
		c-0.2,0.2-0.4,0.4-0.7,0.6c-0.2,0.2-0.5,0.4-0.8,0.5c-0.3,0.2-0.5,0.3-0.8,0.5c-0.3,0.2-0.5,0.3-0.7,0.5c-0.2,0.2-0.4,0.4-0.6,0.6
		c-0.2,0.2-0.3,0.4-0.3,0.7h4.3v0.9h-5.5c0-0.5,0.1-0.9,0.3-1.3c0.1-0.4,0.3-0.7,0.5-0.9c0.2-0.3,0.5-0.5,0.7-0.7
		c0.3-0.2,0.6-0.4,0.8-0.6c0.4-0.2,0.7-0.4,0.9-0.6s0.5-0.4,0.7-0.6c0.2-0.2,0.3-0.4,0.4-0.6c0.1-0.2,0.1-0.5,0.1-0.8
		c0-0.2,0-0.4-0.1-0.6c-0.1-0.2-0.2-0.3-0.4-0.5c-0.1-0.1-0.3-0.2-0.5-0.3c-0.2-0.1-0.4-0.1-0.6-0.1c-0.3,0-0.5,0.1-0.8,0.2
		c-0.2,0.1-0.4,0.3-0.5,0.5c-0.1,0.2-0.2,0.4-0.3,0.7s-0.1,0.5-0.1,0.8h-1C107.8,100,107.8,99.6,107.9,99.2z"/>
	<path d="M114.4,100.8c0-0.3,0.1-0.7,0.1-1c0.1-0.3,0.2-0.6,0.3-0.9c0.1-0.3,0.3-0.5,0.5-0.8c0.2-0.2,0.5-0.4,0.8-0.5
		c0.3-0.1,0.7-0.2,1.1-0.2c0.4,0,0.8,0.1,1.1,0.2s0.6,0.3,0.8,0.5c0.2,0.2,0.4,0.5,0.5,0.8c0.1,0.3,0.2,0.6,0.3,0.9
		c0.1,0.3,0.1,0.6,0.1,1c0,0.3,0,0.7,0,1c0,0.3,0,0.6,0,1c0,0.3-0.1,0.7-0.1,1c-0.1,0.3-0.2,0.6-0.3,0.9c-0.1,0.3-0.3,0.5-0.5,0.7
		c-0.2,0.2-0.5,0.4-0.8,0.5c-0.3,0.1-0.7,0.2-1.1,0.2c-0.4,0-0.8-0.1-1.1-0.2c-0.3-0.1-0.6-0.3-0.8-0.5c-0.2-0.2-0.4-0.5-0.5-0.7
		c-0.1-0.3-0.2-0.6-0.3-0.9c-0.1-0.3-0.1-0.6-0.1-1c0-0.3,0-0.7,0-1C114.4,101.4,114.4,101.1,114.4,100.8z M115.5,102.8
		c0,0.4,0.1,0.8,0.2,1.1c0.1,0.3,0.3,0.6,0.5,0.9s0.6,0.4,1,0.4c0.4,0,0.8-0.1,1-0.4s0.4-0.5,0.5-0.9c0.1-0.3,0.2-0.7,0.2-1.1
		c0-0.4,0-0.8,0-1.1c0-0.2,0-0.4,0-0.7c0-0.3,0-0.5-0.1-0.8c0-0.3-0.1-0.5-0.2-0.7c-0.1-0.2-0.2-0.4-0.3-0.6
		c-0.1-0.2-0.3-0.3-0.5-0.4c-0.2-0.1-0.4-0.2-0.7-0.2s-0.5,0.1-0.7,0.2c-0.2,0.1-0.4,0.3-0.5,0.4c-0.1,0.2-0.2,0.4-0.3,0.6
		s-0.1,0.5-0.2,0.7c0,0.3-0.1,0.5-0.1,0.8c0,0.3,0,0.5,0,0.7C115.5,102,115.5,102.4,115.5,102.8z"/>
	<path d="M123.5,105.9v-6.1h-2.2V99c0.3,0,0.6,0,0.8-0.1c0.3,0,0.5-0.1,0.7-0.2s0.4-0.3,0.6-0.5c0.2-0.2,0.3-0.5,0.3-0.8h0.8v8.5
		H123.5z"/>
	<path d="M128.1,104.8c0.3,0.2,0.6,0.3,1.1,0.3c0.6,0,1.1-0.3,1.4-0.8s0.5-1.4,0.5-2.5l0,0c-0.2,0.4-0.5,0.6-0.8,0.9
		c-0.4,0.2-0.7,0.3-1.1,0.3c-0.4,0-0.8-0.1-1.1-0.2c-0.3-0.1-0.6-0.3-0.8-0.6c-0.2-0.2-0.4-0.5-0.5-0.9c-0.1-0.4-0.2-0.7-0.2-1.1
		c0-0.4,0.1-0.8,0.2-1.1c0.1-0.3,0.3-0.6,0.6-0.9c0.2-0.2,0.5-0.4,0.9-0.6c0.3-0.1,0.7-0.2,1.1-0.2c0.4,0,0.8,0.1,1.1,0.2
		c0.4,0.1,0.7,0.3,0.9,0.6c0.3,0.3,0.5,0.7,0.6,1.2c0.2,0.5,0.2,1.2,0.2,2c0,1.5-0.2,2.6-0.7,3.4c-0.5,0.8-1.2,1.2-2.2,1.2
		c-0.7,0-1.3-0.2-1.8-0.5c-0.5-0.4-0.7-0.9-0.8-1.6h1C127.7,104.3,127.8,104.6,128.1,104.8z M130.8,99.5c-0.1-0.2-0.2-0.4-0.3-0.6
		c-0.1-0.2-0.3-0.3-0.5-0.4c-0.2-0.1-0.5-0.2-0.8-0.2c-0.3,0-0.6,0.1-0.8,0.2c-0.2,0.1-0.4,0.3-0.5,0.4c-0.1,0.2-0.2,0.4-0.3,0.6
		s-0.1,0.5-0.1,0.8c0,0.2,0,0.5,0.1,0.7c0.1,0.2,0.2,0.4,0.3,0.6c0.1,0.2,0.3,0.3,0.5,0.4c0.2,0.1,0.4,0.1,0.7,0.1
		c0.3,0,0.5,0,0.7-0.1c0.2-0.1,0.4-0.2,0.5-0.4c0.2-0.2,0.3-0.4,0.3-0.6c0.1-0.2,0.1-0.5,0.1-0.7C130.9,100,130.9,99.7,130.8,99.5z"
		/>
</g>
</svg>
