<?xml version="1.0" encoding="utf-8"?>
<!-- Generator: Adobe Illustrator 22.1.0, SVG Export Plug-In . SVG Version: 6.00 Build 0)  -->
<svg version="1.1" id="Lager_1" xmlns="http://www.w3.org/2000/svg" xmlns:xlink="http://www.w3.org/1999/xlink" x="0px" y="0px"
	 viewBox="0 0 320 80" style="enable-background:new 0 0 320 80;" xml:space="preserve">
<style type="text/css">
	.st0{fill-rule:evenodd;clip-rule:evenodd;fill:#FFFFFF;}
	.st1{fill-rule:evenodd;clip-rule:evenodd;fill:#009540;}
	.st2{fill-rule:evenodd;clip-rule:evenodd;fill:#868686;}
	.st3{fill:#868686;}
</style>
<polygon class="st0" points="257.6,80 0,80 0,0 320,0 "/>
<g>
	<polyline class="st1" points="61.8,16 54.5,52.4 209.2,52.4 207,64 24.4,63.9 61.8,16 	"/>
	<polyline class="st2" points="85.5,16.6 81.3,36.5 75.1,36.5 76.8,28.4 70.1,28.4 68.4,36.5 62.2,36.5 66.5,16.6 72.6,16.6 
		71.1,23.7 77.8,23.7 79.4,16.6 85.5,16.6 	"/>
	<path class="st2" d="M98.1,29l-0.6-7.3h-0.1L94,29H98.1 M104.8,36.5h-6l-0.3-3.3H92l-1.6,3.3h-6.6L95,16.6h6.6L104.8,36.5z"/>
	<polyline class="st2" points="131.5,16.6 122.9,24.1 129,36.5 122.3,36.5 118.6,27.9 114.2,31.7 113.2,36.5 107,36.5 111.3,16.6 
		117.5,16.6 115.9,24.1 115.9,24.1 123.4,16.6 131.5,16.6 	"/>
	<path class="st2" d="M142.9,29l-0.6-7.3h-0.1l-3.4,7.3H142.9 M149.6,36.5h-6l-0.3-3.3h-6.5l-1.6,3.3h-6.6l11.3-19.9h6.6L149.6,36.5
		z"/>
	<path class="st2" d="M160.6,24.7h1.2c2,0,3.2-0.1,3.8-0.3c0.6-0.2,1-0.5,1.3-0.9c0.3-0.4,0.4-0.8,0.4-1.3c0-0.5-0.2-0.9-0.5-1.2
		c-0.3-0.3-1.1-0.4-2.2-0.4h-3.1L160.6,24.7 M156.1,16.6h11.3c2,0,3.4,0.5,4.3,1.5c0.9,1,1.4,2.2,1.4,3.7c0,1.6-0.5,2.9-1.4,4.1
		c-1,1.2-2.5,1.9-4.6,2.2c1.2,1,2.7,3.8,4.5,8.4H165c-0.5-1.4-1.2-3-1.9-4.7c-0.7-1.7-1.3-2.7-1.7-3c-0.4-0.3-0.8-0.4-1.4-0.4h-0.3
		l-1.7,8.1h-6.2L156.1,16.6z"/>
	<path class="st2" d="M182.1,25.2h2.1c1,0,1.8-0.3,2.4-0.9c0.6-0.6,0.9-1.3,0.9-2c0-1.2-0.6-1.8-1.9-1.8h-2.4L182.1,25.2
		 M177.8,16.6h9c1.7,0,3,0.2,3.9,0.6c0.9,0.4,1.5,1,2,1.8c0.5,0.8,0.7,1.8,0.7,2.9c0,1.5-0.4,2.8-1.2,4c-0.8,1.2-1.8,2-3.1,2.5
		c-1.2,0.5-2.9,0.8-5.1,0.8h-2.7l-1.6,7.4h-6.2L177.8,16.6z"/>
	<path class="st2" d="M213.4,22.1l-5.8,0.3c-0.1-1.7-1.1-2.6-2.9-2.6c-0.7,0-1.3,0.2-1.7,0.5c-0.4,0.3-0.6,0.7-0.6,1.1
		c0,0.3,0.2,0.6,0.5,0.9c0.3,0.3,1.1,0.7,2.3,1.1c1.5,0.6,2.7,1.1,3.7,1.7c0.9,0.5,1.7,1.2,2.3,2c0.6,0.8,0.9,1.9,0.9,3.1
		c0,1.2-0.3,2.3-1,3.3c-0.7,1-1.6,1.8-2.8,2.5c-1.2,0.7-2.9,1-5.2,1c-3.1,0-5.4-0.6-6.7-1.8c-1.3-1.2-2-2.8-2-4.7v-0.5l5.8-0.4
		c0,1.2,0.3,2.1,0.8,2.6c0.5,0.5,1.3,0.8,2.3,0.8c1,0,1.7-0.2,2.2-0.6c0.5-0.4,0.8-0.9,0.8-1.4c0-0.4-0.2-0.8-0.5-1.1
		c-0.3-0.4-1.1-0.8-2.4-1.2c-2.9-1.1-4.8-2-5.5-2.9c-0.8-0.9-1.2-2-1.2-3.2c0-1.1,0.3-2.2,1-3.1c0.6-0.9,1.6-1.7,2.8-2.2
		c1.2-0.5,2.7-0.8,4.4-0.8C210.2,16.3,213.1,18.2,213.4,22.1"/>
	<g>
		<path class="st3" d="M99.2,40l7.2,0l-0.4,1.9l-4.5,0l-0.3,1.4l4.2,0l-0.4,1.8l-4.2,0l-0.4,1.7l4.6,0l-0.5,2l-7.3,0L99.2,40z"/>
		<path class="st3" d="M114,47.5c0.3,0.2,0.5,0.4,0.6,0.4c0.1,0.1,0.3,0.2,0.6,0.3l-1.1,1.5c-0.3-0.2-0.7-0.4-1-0.7
			s-0.5-0.4-0.6-0.6c-0.7,0.3-1.4,0.4-2.3,0.4c-1.3,0-2.3-0.3-2.9-1c-0.7-0.8-0.9-2-0.6-3.4c0.3-1.4,1-2.6,2-3.3
			c1-0.8,2.2-1.2,3.6-1.2c1.4,0,2.5,0.4,3.1,1.2c0.6,0.8,0.7,1.9,0.4,3.3C115.3,45.6,114.8,46.7,114,47.5z M112.2,46.1
			c0.3-0.4,0.5-1,0.7-1.7c0.2-0.9,0.2-1.5-0.1-1.9c-0.2-0.4-0.6-0.6-1.2-0.6c-0.5,0-1,0.2-1.4,0.6c-0.4,0.4-0.7,1-0.9,1.8
			c-0.2,1-0.2,1.6,0,2c0.2,0.4,0.6,0.6,1.2,0.6c0.2,0,0.4,0,0.5-0.1c-0.2-0.2-0.5-0.4-0.9-0.6l0.6-1c0.2,0,0.4,0.1,0.5,0.2
			c0.1,0.1,0.3,0.2,0.7,0.5C112.1,45.9,112.1,46,112.2,46.1z"/>
		<path class="st3" d="M123.7,40l2.7,0l-1.2,5.2c-0.1,0.5-0.3,1-0.6,1.5c-0.3,0.5-0.6,0.9-1,1.2c-0.4,0.3-0.8,0.6-1.2,0.7
			c-0.6,0.2-1.2,0.3-1.9,0.3c-0.4,0-0.9,0-1.4-0.1c-0.5-0.1-0.9-0.2-1.2-0.4c-0.3-0.2-0.5-0.4-0.7-0.8c-0.2-0.3-0.3-0.7-0.3-1
			c0-0.6,0-1,0.1-1.5l1.2-5.2l2.7,0l-1.2,5.3c-0.1,0.5-0.1,0.8,0.1,1.1c0.2,0.3,0.5,0.4,1,0.4c0.5,0,0.9-0.1,1.2-0.4
			c0.3-0.3,0.5-0.6,0.7-1.1L123.7,40z"/>
		<path class="st3" d="M128.3,40l2.7,0l-2,8.7l-2.7,0L128.3,40z"/>
		<path class="st3" d="M132.9,40l4.5,0c1,0,1.6,0.2,2,0.7c0.4,0.5,0.5,1.1,0.3,2c-0.2,0.9-0.6,1.6-1.3,2.1c-0.6,0.5-1.5,0.7-2.6,0.7
			l-1.5,0l-0.7,3.2l-2.7,0L132.9,40z M134.7,43.7l0.7,0c0.5,0,0.9-0.1,1.2-0.3c0.3-0.2,0.4-0.4,0.5-0.7c0.1-0.3,0-0.5-0.1-0.7
			c-0.1-0.2-0.5-0.3-1-0.3l-0.8,0L134.7,43.7z"/>
		<path class="st3" d="M141.6,40l3.5,0l0.1,5.3l2.6-5.3l3.5,0l-2,8.7l-2.2,0l1.5-6.7l-3.2,6.7l-2,0l-0.2-6.7l-1.5,6.7l-2.2,0
			L141.6,40z"/>
		<path class="st3" d="M153.1,40l7.2,0l-0.4,1.9l-4.5,0l-0.3,1.4l4.2,0l-0.4,1.8l-4.2,0l-0.4,1.7l4.6,0l-0.5,2l-7.3,0L153.1,40z"/>
		<path class="st3" d="M161.9,40l2.5,0l2.2,4.8l1.1-4.8l2.5,0l-2,8.7l-2.5,0l-2.1-4.8l-1.1,4.8l-2.5,0L161.9,40z"/>
		<path class="st3" d="M171.4,40l8.2,0l-0.5,2.2l-2.7,0l-1.5,6.6l-2.7,0l1.5-6.6l-2.7,0L171.4,40z"/>
	</g>
</g>
</svg>
